# xmcd
#
# Track frame offsets: 
#        150
#        12031
#        21774
#        32396
#        42473
#        56813
#        69178
#        82007
#        92843
#        102774
#        112974
#        126703
#        138711
#        147737
#        157140
#        169716
#        181716
#        193388
#        205401
#        216613
#        228801
#        238300
#        249923
#        262800
#        272274
#        280484
#        290881
#
# Disc length: 4043 seconds
#
# Revision: 2
# Processed by: cddbd v1.5.2PL0 Copyright (c) Steve Scherf et al.
# Submitted via: ExactAudioCopy v0.99pb5
#
DISCID=9d0fc91b
DTITLE=Various Artist - Rolliing Stones Beginnings 2 - Yesterday's Papers
DYEAR=2013
DGENRE=Blues
TTITLE0=Presley, Elvis - I'm Left, You're Right, She's Gone
TTITLE1=Berry, Chuck - Beautiful Delilah
TTITLE2=Diddley, Bo - Bo Diddley
TTITLE3=Arnold, Billy Boy - I Ain't Got You
TTITLE4=James, Elmore - Dust My Blues
TTITLE5=Berry, Chuck - Little Queenie
TTITLE6=Reed, Jimmy - Big Boss Man
TTITLE7=Waters, Muddy - Look What You've Done
TTITLE8=Diddley, Bo - Hey Bo Diddley
TTITLE9=Berry, Chuck - Memphis
TTITLE10=Taylor, Eddie - Bad Boy
TTITLE11=Reed, Jimmy - Bright Lights, Big City
TTITLE12=Coasters - I'a A Hog For You
TTITLE13=Berry, Chuck - Bye Bye Johnny
TTITLE14=Diddley, Bo - I Know (I'm Alright)
TTITLE15=Bland, Bobby Blue - Don't Want No Woman
TTITLE16=Reed, Jimmy - Close Together
TTITLE17=Waters, Muddy - Soon Forgotten
TTITLE18=Berry, Chuck - Back In The USA
TTITLE19=Coasters - Poison Ivy
TTITLE20=Valens. Ritchie - La Bamba
TTITLE21=Strong, Barrett - Money
TTITLE22=Shadows - Apache
TTITLE23=Diddley, Bo - Crackin' Up
TTITLE24=Berry, Chuck - Come On
TTITLE25=Neville, Aaron - Over You
TTITLE26=Diddley, Bo - Road Runner
EXTD=
EXTT0=
EXTT1=
EXTT2=
EXTT3=
EXTT4=
EXTT5=
EXTT6=
EXTT7=
EXTT8=
EXTT9=
EXTT10=
EXTT11=
EXTT12=
EXTT13=
EXTT14=
EXTT15=
EXTT16=
EXTT17=
EXTT18=
EXTT19=
EXTT20=
EXTT21=
EXTT22=
EXTT23=
EXTT24=
EXTT25=
EXTT26=
PLAYORDER=
